{
    "asset": {
        "generator": "FBX2glTF v0.9.7",
        "version": "2.0"
    },
    "scene": 0,
    "buffers": [
        {
            "byteLength": 103580,
            "uri": "buffer.bin"
        }
    ],
    "bufferViews": [
        {
            "buffer": 0,
            "byteLength": 6690,
            "byteOffset": 0,
            "target": 34963
        },
        {
            "buffer": 0,
            "byteLength": 36300,
            "byteOffset": 6692,
            "target": 34962
        },
        {
            "buffer": 0,
            "byteLength": 36300,
            "byteOffset": 42992,
            "target": 34962
        },
        {
            "buffer": 0,
            "byteLength": 1920,
            "byteOffset": 79292,
            "target": 34963
        },
        {
            "buffer": 0,
            "byteLength": 11184,
            "byteOffset": 81212,
            "target": 34962
        },
        {
            "buffer": 0,
            "byteLength": 11184,
            "byteOffset": 92396,
            "target": 34962
        }
    ],
    "scenes": [
        {
            "name": "Root Scene",
            "nodes": [
                0
            ]
        }
    ],
    "accessors": [
        {
            "componentType": 5123,
            "type": "SCALAR",
            "count": 3345,
            "bufferView": 0,
            "byteOffset": 0
        },
        {
            "componentType": 5126,
            "type": "VEC3",
            "count": 3025,
            "bufferView": 1,
            "byteOffset": 0,
            "min": [
                -0.0412915758788586,
                -0.0559834241867065,
                -0.0164348985999823
            ],
            "max": [
                0.0594849996268749,
                0.0368103198707104,
                0.155021950602531
            ]
        },
        {
            "componentType": 5126,
            "type": "VEC3",
            "count": 3025,
            "bufferView": 2,
            "byteOffset": 0
        },
        {
            "componentType": 5123,
            "type": "SCALAR",
            "count": 960,
            "bufferView": 3,
            "byteOffset": 0
        },
        {
            "componentType": 5126,
            "type": "VEC3",
            "count": 932,
            "bufferView": 4,
            "byteOffset": 0,
            "min": [
                -0.0220427215099335,
                -0.0227653812617064,
                -0.0168182756751776
            ],
            "max": [
                0.0111695528030396,
                0.0166276432573795,
                0.0130933672189713
            ]
        },
        {
            "componentType": 5126,
            "type": "VEC3",
            "count": 932,
            "bufferView": 5,
            "byteOffset": 0
        }
    ],
    "samplers": [
        {}
    ],
    "materials": [
        {
            "name": "DefaultMaterial",
            "alphaMode": "OPAQUE",
            "extras": {
                "fromFBX": {
                    "shadingModel": "Lambert",
                    "isTruePBR": false
                }
            },
            "pbrMetallicRoughness": {
                "baseColorFactor": [
                    0.5,
                    0.5,
                    0.5,
                    1.0
                ],
                "metallicFactor": 0.200000002980232,
                "roughnessFactor": 0.800000011920929
            }
        }
    ],
    "meshes": [
        {
            "name": "Cylinder",
            "primitives": [
                {
                    "material": 0,
                    "mode": 4,
                    "attributes": {
                        "NORMAL": 2,
                        "POSITION": 1
                    },
                    "indices": 0
                }
            ]
        },
        {
            "name": "Icosphere",
            "primitives": [
                {
                    "material": 0,
                    "mode": 4,
                    "attributes": {
                        "NORMAL": 5,
                        "POSITION": 4
                    },
                    "indices": 3
                }
            ]
        }
    ],
    "nodes": [
        {
            "name": "RootNode",
            "translation": [
                0.0,
                0.0,
                0.0
            ],
            "rotation": [
                0.0,
                0.0,
                0.0,
                1.0
            ],
            "scale": [
                1.0,
                1.0,
                1.0
            ],
            "children": [
                1,
                2
            ]
        },
        {
            "name": "Cylinder",
            "translation": [
                0.0,
                0.0,
                0.0
            ],
            "rotation": [
                -0.707106828689575,
                0.0,
                0.0,
                0.707106709480286
            ],
            "scale": [
                100.0,
                100.0,
                100.0
            ],
            "mesh": 0
        },
        {
            "name": "Icosphere",
            "translation": [
                3.50533676147461,
                13.6757345199585,
                -1.17281949520111
            ],
            "rotation": [
                -0.707106828689575,
                0.0,
                0.0,
                0.707106709480286
            ],
            "scale": [
                496.761993408203,
                496.761993408203,
                496.761993408203
            ],
            "mesh": 1
        }
    ]
}